<?xml version="1.0" encoding="UTF-8"?>
<svg xmlns="http://www.w3.org/2000/svg" xmlns:xlink="http://www.w3.org/1999/xlink" width="283pt" height="316.3pt" viewBox="0 0 283 316.3" version="1.1">
<g id="surface1">
<path style=" stroke:none;fill-rule:evenodd;fill:rgb(10.594177%,9.812927%,9.423828%);fill-opacity:1;" d="M 20.621094 72.929688 L 0.0898438 -0.0703125 L 283.03125 -0.0703125 L 262.5 72.929688 L 262.5 225.144531 L 141.558594 316.296875 L 20.621094 225.144531 Z M 20.621094 72.929688 "/>
<path style=" stroke:none;fill-rule:evenodd;fill:rgb(100%,100%,100%);fill-opacity:1;" d="M 23.449219 75.371094 L 23.449219 223.730469 L 141.558594 312.746094 L 259.660156 223.730469 L 259.660156 75.371094 Z M 23.449219 75.371094 "/>
<path style=" stroke:none;fill-rule:evenodd;fill:rgb(10.594177%,9.812927%,9.423828%);fill-opacity:1;" d="M 109.578125 265.269531 L 204.550781 265.269531 L 179.648438 284.039063 L 109.578125 284.039063 Z M 109.578125 72.539063 L 259.660156 72.539063 L 259.660156 91.304688 L 109.578125 91.304688 Z M 109.578125 104.660156 L 259.660156 104.660156 L 259.660156 123.425781 L 109.578125 123.425781 Z M 109.578125 136.78125 L 259.660156 136.78125 L 259.660156 155.550781 L 109.578125 155.550781 Z M 109.578125 168.902344 L 259.660156 168.902344 L 259.660156 187.671875 L 109.578125 187.671875 Z M 109.578125 201.023438 L 259.660156 201.023438 L 259.660156 219.792969 L 109.578125 219.792969 Z M 109.578125 233.148438 L 247.171875 233.148438 L 222.269531 251.914063 L 109.578125 251.914063 Z M 109.578125 233.148438 "/>
<path style=" stroke:none;fill-rule:evenodd;fill:rgb(89.0625%,0%,8.616638%);fill-opacity:1;" d="M 63.589844 83.855469 L 67.949219 97.363281 L 82.140625 97.335938 L 70.640625 105.65625 L 75.050781 119.144531 L 63.589844 110.78125 L 52.121094 119.144531 L 56.53125 105.65625 L 45.039063 97.335938 L 59.230469 97.363281 Z M 63.589844 83.855469 "/>
<path style=" stroke:none;fill-rule:evenodd;fill:rgb(89.0625%,0%,8.616638%);fill-opacity:1;" d="M 63.589844 123.894531 L 67.949219 137.398438 L 82.140625 137.371094 L 70.640625 145.691406 L 75.050781 159.179688 L 63.589844 150.816406 L 52.121094 159.179688 L 56.53125 145.691406 L 45.039063 137.371094 L 59.230469 137.398438 Z M 63.589844 123.894531 "/>
<path style=" stroke:none;fill-rule:evenodd;fill:rgb(89.0625%,0%,8.616638%);fill-opacity:1;" d="M 63.589844 163.929688 L 67.949219 177.4375 L 82.140625 177.410156 L 70.640625 185.730469 L 75.050781 199.21875 L 63.589844 190.855469 L 52.121094 199.21875 L 56.53125 185.730469 L 45.039063 177.410156 L 59.230469 177.4375 Z M 63.589844 163.929688 "/>
<path style=" stroke:none;fill-rule:evenodd;fill:rgb(89.0625%,0%,8.616638%);fill-opacity:1;" d="M 63.589844 203.96875 L 67.949219 217.476563 L 82.140625 217.449219 L 70.640625 225.765625 L 75.050781 239.257813 L 63.589844 230.890625 L 52.121094 239.257813 L 56.53125 225.765625 L 45.039063 217.449219 L 59.230469 217.476563 Z M 63.589844 203.96875 "/>
<path style=" stroke:none;fill-rule:evenodd;fill:rgb(89.0625%,0%,8.616638%);fill-opacity:1;" d="M 23.449219 72.539063 L 259.660156 72.539063 L 279.289063 2.765625 L 3.832031 2.765625 Z M 23.449219 72.539063 "/>
<path style=" stroke:none;fill-rule:evenodd;fill:rgb(100%,100%,100%);fill-opacity:1;" d="M 30.410156 10.03125 L 87.089844 10.03125 L 87.089844 21.71875 L 53.429688 21.71875 L 53.429688 31.214844 L 82.167969 31.214844 L 82.167969 42.191406 L 53.429688 42.191406 L 53.429688 64.410156 L 30.410156 64.410156 Z M 97.949219 10.03125 L 136.050781 10.03125 C 144.339844 10.03125 150.550781 11.476563 154.679688 14.375 C 158.808594 17.261719 160.878906 21.390625 160.878906 26.71875 C 160.878906 32.214844 158.628906 36.507813 154.128906 39.59375 C 149.621094 42.683594 142.75 44.230469 133.511719 44.230469 L 120.96875 44.230469 L 120.96875 64.410156 L 97.949219 64.410156 Z M 120.96875 33.214844 L 126.578125 33.214844 C 131.011719 33.214844 134.089844 32.65625 135.890625 31.53125 C 137.671875 30.402344 138.570313 28.960938 138.570313 27.214844 C 138.570313 25.503906 137.789063 24.046875 136.238281 22.871094 C 134.699219 21.679688 131.78125 21.085938 127.5 21.085938 L 120.96875 21.085938 Z M 171.589844 10.03125 L 194.5 10.03125 L 194.5 30.582031 L 218.539063 10.03125 L 249.011719 10.03125 L 221.980469 30.542969 L 250.21875 64.410156 L 221.980469 64.410156 L 206.351563 42.039063 L 194.5 51.128906 L 194.5 64.410156 L 171.589844 64.410156 Z M 171.589844 10.03125 "/>
</g>
</svg>
